<svg xmlns="http://www.w3.org/2000/svg" version="1.1" viewBox="89.77 217.14 330.43 83.18">
<path d="M0 0 C2.72865599 2.91683916 3.24888366 5.63336505 3.4375 9.5 C3.05706727 20.63179259 -1.63496904 32.43997374 -8.68359375 41.05859375 C-10.37414421 43.16084098 -10.37414421 43.16084098 -10 47 C-7.79847753 47.50753344 -7.79847753 47.50753344 -5 47 C-2.46427718 45.20822891 -0.22825512 43.15761879 2 41 C2.66 41.33 3.32 41.66 4 42 C4.46033003 45.95883823 4.39305417 47.50290208 1.875 50.6875 C-2.37107843 54.10282396 -5.11622298 56.09578527 -10.6875 55.8125 C-14 55 -14 55 -17 53 C-17 52.34 -17 51.68 -17 51 C-17.94875 51.639375 -18.8975 52.27875 -19.875 52.9375 C-24.90281502 55.7872737 -30.39602845 56.76121268 -36.08984375 55.55859375 C-39.18721622 54.41263142 -40.92039713 53.10271339 -42.9375 50.5 C-44 48 -44 48 -44 45 C-47.24356576 44.24586647 -47.24356576 44.24586647 -51 45 C-52.84805822 47.15244428 -54.17551977 49.35324915 -55.54296875 51.8359375 C-57.1792686 54.26625954 -58.25316962 55.05428277 -61 56 C-66.43478261 55.56521739 -66.43478261 55.56521739 -69 53 C-70.051875 53.7734375 -70.051875 53.7734375 -71.125 54.5625 C-74.66247791 56.33123895 -76.24753778 56.06047845 -80 55 C-80.99 54.34 -81.98 53.68 -83 53 C-83.515625 53.515625 -84.03125 54.03125 -84.5625 54.5625 C-88.04426568 56.61584899 -90.1631596 55.97665028 -94 55 C-96.55988914 53.29340724 -96.91988882 52.3131619 -97.6875 49.3125 C-97.790625 48.549375 -97.89375 47.78625 -98 47 C-99.093125 47.061875 -100.18625 47.12375 -101.3125 47.1875 C-105 47 -105 47 -106.875 45.8125 C-108.26229035 43.5774211 -108.64987213 41.59094622 -109 39 C-111.13354252 43.11994417 -113.04482534 47.01135582 -114.4375 51.4375 C-114.953125 52.613125 -115.46875 53.78875 -116 55 C-118.6875 56 -118.6875 56 -121 56 C-125.07323798 51.62504069 -124.41192862 47.33632002 -124.3046875 41.640625 C-123.90021716 36.80772303 -122.74550648 32.50922508 -121 28 C-117.535 27.505 -117.535 27.505 -114 27 C-114 29.31 -114 31.62 -114 34 C-113.48050781 33.4946875 -112.96101562 32.989375 -112.42578125 32.46875 C-111.72839844 31.8190625 -111.03101563 31.169375 -110.3125 30.5 C-109.62800781 29.8503125 -108.94351563 29.200625 -108.23828125 28.53125 C-105.55907466 26.69835474 -104.1833468 26.53543198 -101 27 C-99 29 -99 29 -98.8046875 31.3828125 C-98.82789063 32.28773438 -98.85109375 33.19265625 -98.875 34.125 C-98.89304688 35.03507812 -98.91109375 35.94515625 -98.9296875 36.8828125 C-98.95289063 37.58148438 -98.97609375 38.28015625 -99 39 C-96.29821129 36.37838306 -93.95829036 33.54828005 -91.59765625 30.62109375 C-89.00485019 27.99025142 -86.774771 27.08421424 -83.125 26.6875 C-79.51696949 27.04830305 -77.12766028 28.21276555 -74 30 C-73.76731085 36.28260706 -74.59545452 41.88019467 -76 48 C-72.81765895 46.24545615 -72.81765895 46.24545615 -70 44 C-69.96810021 40.43633737 -70.06871647 36.88280629 -70.16015625 33.3203125 C-70 30 -70 30 -68 27 C-65.375 26.8125 -65.375 26.8125 -63 27 C-61.25314692 30.82745451 -60.65113667 34.12442723 -60.375 38.3125 C-60.30023438 39.38113281 -60.22546875 40.44976562 -60.1484375 41.55078125 C-60.09945312 42.35902344 -60.05046875 43.16726563 -60 44 C-57.93399864 40.90099797 -57.801356 40.1365588 -57.6875 36.625 C-57.34835055 32.98360591 -56.99894265 31.99853146 -54.75 28.875 C-52 27 -52 27 -49.25 27.125 C-47 28 -47 28 -46 29 C-45.85884839 31.67058851 -45.95752893 34.32432238 -46 37 C-45.01 37 -44.02 37 -43 37 C-42.773125 36.2575 -42.54625 35.515 -42.3125 34.75 C-40.47907322 30.90853437 -37.77023176 28.88511588 -34 27 C-30.09091428 26.74505963 -27.30875166 26.79416556 -24 29 C-22.23715506 32.52568989 -22.19608652 36.17337185 -23 40 C-24.99240223 42.53724145 -27.31272247 44.24492581 -30 46 C-30.99 46.66 -31.98 47.32 -33 48 C-26.27390255 47.69822874 -26.27390255 47.69822874 -21 44 C-20.26739862 40.88189996 -20.12037866 37.75368893 -19.9375 34.5625 C-18.97826292 22.51659234 -17.83884664 8.45839622 -8 0 C-4.62848454 -1.12383849 -3.31972498 -1.16190374 0 0 Z M-5 6 C-10.34984749 13.85311837 -11.40367978 23.70562973 -12 33 C-9.2916555 30.63987122 -8.14980073 28.40006885 -6.875 25.0625 C-6.54242188 24.20785156 -6.20984375 23.35320312 -5.8671875 22.47265625 C-4.43951395 18.40185735 -3.88051608 15.08077794 -3.9375 10.75 C-3.94652344 9.85796875 -3.95554687 8.9659375 -3.96484375 8.046875 C-3.97644531 7.37140625 -3.98804688 6.6959375 -4 6 C-4.33 6 -4.66 6 -5 6 Z M-86.5625 36 C-89.74394266 39.91562174 -89.83671255 42.01973292 -90 47 C-89.67 47.66 -89.34 48.32 -89 49 C-86.99690039 48.38627072 -86.99690039 48.38627072 -85 47 C-83.86400752 44.4431131 -83.86400752 44.4431131 -83.25 41.5 C-83.00765625 40.5203125 -82.7653125 39.540625 -82.515625 38.53125 C-81.93346517 36.10391341 -81.93346517 36.10391341 -82 34 C-84.27899489 33.79490971 -84.27899489 33.79490971 -86.5625 36 Z M-33 34 C-35.35723489 36.53184488 -36 37.47190093 -36 41 C-33.47636012 40.37466625 -33.47636012 40.37466625 -31 39 C-30.10613836 36.45224694 -30.10613836 36.45224694 -30 34 C-30.99 34 -31.98 34 -33 34 Z " fill="#1094AC" transform="translate(256,218)"/>
<path d="M0 0 C2.73247137 3.22928435 2.33721588 6.95340939 2 11 C0.79464938 15.49116942 -0.51341235 18.83570197 -4 22 C-1.69 22.66 0.62 23.32 3 24 C2.1875 26.4375 2.1875 26.4375 1 29 C-1.88211302 29.96070434 -3.69850044 30.10581883 -6.6875 30.0625 C-8.8221875 30.0315625 -8.8221875 30.0315625 -11 30 C-10.67 34.29 -10.34 38.58 -10 43 C-5.40700258 43.46730445 -5.40700258 43.46730445 -1.328125 41.79296875 C0.33132745 39.55270794 0.56544487 37.87569974 0.9375 35.125 C1.71575615 30.74890395 2.62318896 28.08737009 6 25 C9.69088207 22.96030201 12.81992127 22.48815363 17 23 C21.88440253 25.49008757 23.93522583 27.95277424 26 33 C26.99 33 27.98 33 29 33 C29.103125 31.906875 29.20625 30.81375 29.3125 29.6875 C30 26 30 26 31.25 24.0625 C33.58371852 22.64559947 35.32136078 22.78281304 38 23 C38 25.31 38 27.62 38 30 C38.77923828 29.24203125 38.77923828 29.24203125 39.57421875 28.46875 C40.27160156 27.8190625 40.96898437 27.169375 41.6875 26.5 C42.71423828 25.52546875 42.71423828 25.52546875 43.76171875 24.53125 C46.44092534 22.69835474 47.8166532 22.53543198 51 23 C53 25 53 25 53.1953125 27.3828125 C53.17210937 28.28773438 53.14890625 29.19265625 53.125 30.125 C53.10695313 31.03507812 53.08890625 31.94515625 53.0703125 32.8828125 C53.04710937 33.58148438 53.02390625 34.28015625 53 35 C54.75237139 32.37144292 55.40674236 30.80477974 56.25 27.875 C57.0078125 25.74609375 57.0078125 25.74609375 58 24 C61.125 22.9375 61.125 22.9375 64 23 C64.33 23.33 64.66 23.66 65 24 C64.9140625 25.78515625 64.9140625 25.78515625 64.625 28.0625 C64.52574219 28.866875 64.42648437 29.67125 64.32421875 30.5 C64.21722656 31.325 64.11023438 32.15 64 33 C63.81239874 34.52082085 63.62489006 36.04165312 63.4375 37.5625 C63.293125 38.696875 63.14875 39.83125 63 41 C66.23924509 38.36516216 67.18390458 35.30534607 68.5625 31.4375 C70.79166667 25.20833333 70.79166667 25.20833333 73 23 C74.65 23.33 76.3 23.66 78 24 C77.67 29.94 77.34 35.88 77 42 C78.65 40.68 80.3 39.36 82 38 C84.8125 37.75 84.8125 37.75 87 38 C87.26953125 40.26953125 87.26953125 40.26953125 87 43 C85.13671875 44.94921875 85.13671875 44.94921875 82.6875 46.6875 C81.48673828 47.55955078 81.48673828 47.55955078 80.26171875 48.44921875 C78.51662536 49.6457681 76.76054475 50.8263035 75 52 C74.0961637 54.54823525 73.33099344 57.02344646 72.625 59.625 C68.54551737 73.63632175 68.54551737 73.63632175 62 78 C55.90673575 78.54404145 55.90673575 78.54404145 53.125 76.875 C51.48743382 74.14572304 51.12280541 72.19294071 51 69 C53.11114866 61.87487328 57.83470699 56.11019534 64 52 C62.906875 51.95875 61.81375 51.9175 60.6875 51.875 C57 51 57 51 55.0625 48.0625 C54 45 54 45 54 43 C52.906875 43.061875 51.81375 43.12375 50.6875 43.1875 C47 43 47 43 45.125 41.8125 C43.73770965 39.5774211 43.35012787 37.59094622 43 35 C40.86645748 39.11994417 38.95517466 43.01135582 37.5625 47.4375 C37.046875 48.613125 36.53125 49.78875 36 51 C33.3125 52 33.3125 52 31 52 C28.39665076 49.28817788 28.00543309 48.10866187 27.8125 44.25 C27.9053125 42.64125 27.9053125 42.64125 28 41 C26.68 41 25.36 41 24 41 C23.773125 41.9075 23.54625 42.815 23.3125 43.75 C21.58076137 48.0381147 19.08020427 49.95989786 15 52 C12.9765625 51.94921875 12.9765625 51.94921875 10.625 51.6875 C9.85414063 51.60886719 9.08328125 51.53023438 8.2890625 51.44921875 C6 51 6 51 3.87890625 49.8671875 C3.25886719 49.58101563 2.63882812 49.29484375 2 49 C1.113125 49.474375 0.22625 49.94875 -0.6875 50.4375 C-5.09986354 52.51880356 -8.35783975 52.37037941 -13 51 C-16.81129804 48.40507367 -18.23891673 45.97627317 -19.375 41.625 C-20.12580202 37.4747333 -19.87395218 34.10757525 -19 30 C-20.65 29.67 -22.3 29.34 -24 29 C-25.125 25.25 -25.125 25.25 -24 23 C-21.4375 22.375 -21.4375 22.375 -19 22 C-18.76925781 21.154375 -18.53851563 20.30875 -18.30078125 19.4375 C-13.65013482 3.2613385 -13.65013482 3.2613385 -8.0390625 -0.21484375 C-5.02826959 -1.37417205 -3.04461691 -0.92662254 0 0 Z M-6 6 C-8.75702189 10.79482068 -9.53328373 14.58609132 -10 20 C-7.64099869 17.85545335 -6.08853869 16.01441484 -5 13 C-4.9222654 10.66796188 -4.91032272 8.33160941 -5 6 C-5.33 6 -5.66 6 -6 6 Z M11 31 C8.50462859 34.74305712 8.21055928 37.59381924 9 42 C10.84188612 44.05270463 10.84188612 44.05270463 13 45 C14.32 43.68 15.64 42.36 17 41 C16.566875 40.195625 16.566875 40.195625 16.125 39.375 C14.83288192 36.64719516 13.91441408 33.87387282 13 31 C12.34 31 11.68 31 11 31 Z M63 60 C61.63180519 61.68207932 61.63180519 61.68207932 60.375 63.8125 C59.92898438 64.52019531 59.48296875 65.22789062 59.0234375 65.95703125 C57.77605136 68.06621207 57.77605136 68.06621207 58 71 C60.67576692 69.99382318 61.7785108 69.45785454 63.046875 66.8359375 C63.39492188 65.61777344 63.39492188 65.61777344 63.75 64.375 C63.99234375 63.55773437 64.2346875 62.74046875 64.484375 61.8984375 C64.65453125 61.27195312 64.8246875 60.64546875 65 60 C64.34 60 63.68 60 63 60 Z " fill="#0796B0" transform="translate(333,222)"/>
<path d="M0 0 C2.75866055 2.19438908 4.52018613 3.73646589 5.0859375 7.30859375 C5.19078947 13.52631579 5.19078947 13.52631579 3 16.8125 C0.75 18.1875 0.75 18.1875 -1.5 17.9375 C-2.0775 17.69 -2.655 17.4425 -3.25 17.1875 C-3.394375 16.28 -3.53875 15.3725 -3.6875 14.4375 C-3.873125 13.365 -4.05875 12.2925 -4.25 11.1875 C-4.37375 10.424375 -4.4975 9.66125 -4.625 8.875 C-4.83125 8.318125 -5.0375 7.76125 -5.25 7.1875 C-9.87849735 5.64466755 -14.32908492 5.27506534 -18.75 7.375 C-20.42764836 9.12662458 -20.42764836 9.12662458 -20.8125 11.625 C-20.44717193 14.30289095 -20.44717193 14.30289095 -18.4375 16.1875 C-14.74014698 18.50740778 -10.91067204 20.14482761 -6.91796875 21.890625 C-2.9554722 23.81675802 0.72716399 26.14182798 2.75 30.1875 C3.18017086 35.2635162 3.1610664 39.19886485 0.26171875 43.64453125 C-4.24504017 48.24445314 -10.6634887 49.41766165 -16.875 49.625 C-22.97774733 49.37467514 -27.48763985 47.84491609 -32.75 44.6875 C-35.20872902 40.5896183 -35.06914292 35.83668956 -34.25 31.1875 C-31.25 29.1875 -31.25 29.1875 -28.5625 29.5625 C-27.4178125 29.871875 -27.4178125 29.871875 -26.25 30.1875 C-25.92 33.4875 -25.59 36.7875 -25.25 40.1875 C-18.83690591 41.06600604 -14.3277434 41.43362256 -8.25 39.1875 C-7.92 37.2075 -7.59 35.2275 -7.25 33.1875 C-10.82209972 30.55542652 -14.1516884 28.75480123 -18.3125 27.1875 C-22.86670263 25.4343032 -26.76478227 23.68392979 -29.3515625 19.3359375 C-30.89466601 15.64590738 -30.78226287 12.11123271 -30.25 8.1875 C-28.14140209 3.53101295 -25.38664696 0.93402341 -20.79296875 -1.1171875 C-14.21207351 -2.91657207 -6.13588496 -3.33164403 0 0 Z " fill="#0B95AE" transform="translate(304.25,224.8125)"/>
<path d="M0 0 C1.25296875 -0.00773438 2.5059375 -0.01546875 3.796875 -0.0234375 C5.0034375 -0.02085937 6.21 -0.01828125 7.453125 -0.015625 C8.54270508 -0.01336914 9.63228516 -0.01111328 10.75488281 -0.00878906 C13.83925946 0.25771234 16.02012659 0.79793968 18.75 2.25 C19.5625 4.875 19.5625 4.875 19.75 7.25 C16.57516555 9.3665563 16.08300995 9.47929149 12.51953125 9.2265625 C11.71708984 9.175 10.91464844 9.1234375 10.08789062 9.0703125 C9.25451172 9.00585938 8.42113281 8.94140625 7.5625 8.875 C6.2950293 8.78992188 6.2950293 8.78992188 5.00195312 8.703125 C2.91728783 8.56179176 0.83353134 8.4071675 -1.25 8.25 C-1.29463379 8.78625 -1.33926758 9.3225 -1.38525391 9.875 C-2.06518622 17.34044195 -3.13380345 24.73669432 -4.296875 32.13916016 C-4.51771621 33.55983954 -4.73278231 34.98142736 -4.94238281 36.40380859 C-5.24848247 38.479695 -5.5714487 40.55231447 -5.8984375 42.625 C-6.17953369 44.46191406 -6.17953369 44.46191406 -6.46630859 46.3359375 C-7.25 49.25 -7.25 49.25 -10.25 51.25 C-14.79054054 50.70945946 -14.79054054 50.70945946 -16.25 49.25 C-17.12782594 40.8340922 -15.30671107 32.49080044 -13.8125 24.25 C-13.57937398 22.9154874 -13.34694743 21.58085241 -13.11523438 20.24609375 C-11.39964658 10.54929315 -11.39964658 10.54929315 -10.25 8.25 C-11.85568666 8.53317926 -13.45952047 8.82687791 -15.0625 9.125 C-15.95582031 9.28742188 -16.84914063 9.44984375 -17.76953125 9.6171875 C-20.47727846 10.16188449 -20.47727846 10.16188449 -23.25 12.25 C-23.57612375 14.42528363 -23.57612375 14.42528363 -23.375 16.8125 C-23.30405352 18.29055167 -23.25579155 19.77025793 -23.25 21.25 C-24.25 22.25 -24.25 22.25 -26.625 22.5625 C-29.25 22.25 -29.25 22.25 -31.0625 20.6875 C-32.70095998 17.32434531 -32.63971822 14.95232314 -32.25 11.25 C-30.3329709 6.67043048 -27.57938636 4.57504082 -23.25 2.25 C-15.48376102 0.01859596 -8.04447685 -0.05027798 0 0 Z " fill="#0E94AC" transform="translate(122.25,222.75)"/>
<path d="M0 0 C0.7425 0.185625 1.485 0.37125 2.25 0.5625 C2.8275 0.706875 3.405 0.85125 4 1 C5.32528788 7.09632423 4.46619907 11.97767819 3 18 C6.18234105 16.24545615 6.18234105 16.24545615 9 14 C8.94131709 12.41556155 8.85298193 10.83217686 8.75 9.25 C8.69113073 5.14092462 8.77232637 4.29957057 11.375 0.875 C14 -1 14 -1 16 -1 C16.33 4.94 16.66 10.88 17 17 C17.99 17 18.98 17 20 17 C20.33 18.98 20.66 20.96 21 23 C19.8553125 22.6596875 19.8553125 22.6596875 18.6875 22.3125 C17.800625 22.209375 16.91375 22.10625 16 22 C14.1645201 23.33378575 14.1645201 23.33378575 13 25 C12.01 24.34 11.02 23.68 10 23 C7.54033159 23.0502699 7.54033159 23.0502699 4.9375 23.5 C2.27734375 23.90625 2.27734375 23.90625 0 24 C-0.66 23.34 -1.32 22.68 -2 22 C-4.57061311 21.35232207 -4.57061311 21.35232207 -7 21 C-6.52449439 19.51965236 -6.04448784 18.04074979 -5.5625 16.5625 C-5.29566406 15.73878906 -5.02882812 14.91507812 -4.75390625 14.06640625 C-4 12 -4 12 -3 11 C-2.92851801 9.64756083 -2.91600546 8.29165633 -2.9375 6.9375 C-2.958125 5.638125 -2.97875 4.33875 -3 3 C-4.32 2.67 -5.64 2.34 -7 2 C-7 1.34 -7 0.68 -7 0 C-3.77167035 -1.07610988 -3.0998653 -0.93935312 0 0 Z " fill="#0597B1" transform="translate(177,248)"/>
<path d="M0 0 C3.52336395 3.76635457 3.32337522 7.70982814 3.30078125 12.59765625 C2.98365957 15.13051122 2.27224682 16.80524751 1 19 C1.02320313 18.20335937 1.04640625 17.40671875 1.0703125 16.5859375 C1.23848592 8.605026 1.23848592 8.605026 -1 1 C-2.32 1.33 -3.64 1.66 -5 2 C-4.938125 2.680625 -4.87625 3.36125 -4.8125 4.0625 C-5 7 -5 7 -6.4140625 10.16015625 C-8.1865254 14.14544876 -8.89505695 18.08598724 -9.5625 22.375 C-9.96442115 24.95188873 -10.43231719 27.44988558 -11 30 C-11.66 30.33 -12.32 30.66 -13 31 C-13.33 27.7 -13.66 24.4 -14 21 C-14.66 21 -15.32 21 -16 21 C-16 23.31 -16 25.62 -16 28 C-15.34 28.33 -14.68 28.66 -14 29 C-15 32 -15 32 -18 34 C-18.36362818 36.20725073 -18.36362818 36.20725073 -18.1875 38.625 C-18.16042969 39.44226563 -18.13335937 40.25953125 -18.10546875 41.1015625 C-18.07066406 41.72804688 -18.03585938 42.35453125 -18 43 C-17.34 43 -16.68 43 -16 43 C-15.67 42.01 -15.34 41.02 -15 40 C-13.35 40.66 -11.7 41.32 -10 42 C-10.33 43.65 -10.66 45.3 -11 47 C-12.65 46.01 -14.3 45.02 -16 44 C-16 44.66 -16 45.32 -16 46 C-23.28571429 49.42857143 -23.28571429 49.42857143 -28 49 C-25.702779 47.25728062 -23.40133271 45.60088848 -21 44 C-20.45064608 42.08042367 -20.45064608 42.08042367 -20.375 39.8515625 C-20.31014404 39.01665283 -20.24528809 38.18174316 -20.1784668 37.3215332 C-20.11957275 36.43167725 -20.06067871 35.54182129 -20 34.625 C-17.79305906 8.41903292 -17.79305906 8.41903292 -8 0 C-4.62848454 -1.12383849 -3.31972498 -1.16190374 0 0 Z M-16 27 C-14 28 -14 28 -14 28 Z " fill="#1194AC" transform="translate(256,218)"/>
<path d="M0 0 C0.66 0.33 1.32 0.66 2 1 C2 1.66 2 2.32 2 3 C1.01 3 0.02 3 -1 3 C-1.33 4.32 -1.66 5.64 -2 7 C-1.34 7 -0.68 7 0 7 C0 11.62 0 16.24 0 21 C0.433125 19.3603125 0.433125 19.3603125 0.875 17.6875 C2.02635611 13.91361051 3.22450994 11.77549006 6 9 C5.56721842 15.78024473 3.22160188 22.11479029 -1.9453125 26.7421875 C-5.03807472 28.6354754 -7.45989247 28.38619355 -11 28 C-13.62705145 26.42376913 -13.94477388 25.1735678 -14.875 22.25 C-15.14675891 15.18426826 -11.33274848 10.77320163 -6.78515625 5.80078125 C-4.66445173 3.66151476 -2.43581163 1.77149937 0 0 Z M-3 10 C-4.36819481 11.68207932 -4.36819481 11.68207932 -5.625 13.8125 C-6.07101562 14.52019531 -6.51703125 15.22789062 -6.9765625 15.95703125 C-8.22394864 18.06621207 -8.22394864 18.06621207 -8 21 C-5.32423308 19.99382318 -4.2214892 19.45785454 -2.953125 16.8359375 C-2.60507812 15.61777344 -2.60507812 15.61777344 -2.25 14.375 C-2.00765625 13.55773437 -1.7653125 12.74046875 -1.515625 11.8984375 C-1.34546875 11.27195312 -1.1753125 10.64546875 -1 10 C-1.66 10 -2.32 10 -3 10 Z " fill="#1195AB" transform="translate(399,272)"/>
<path d="M0 0 C1.65 0.33 3.3 0.66 5 1 C4.67 6.94 4.34 12.88 4 19 C5.65 17.68 7.3 16.36 9 15 C11.8125 14.75 11.8125 14.75 14 15 C14.26953125 17.26953125 14.26953125 17.26953125 14 20 C12.13671875 21.94921875 12.13671875 21.94921875 9.6875 23.6875 C8.88699219 24.26886719 8.08648437 24.85023438 7.26171875 25.44921875 C5.51662536 26.6457681 3.76054475 27.8263035 2 29 C0.7811879 32.55672179 0.7811879 32.55672179 0 36 C-0.33 36 -0.66 36 -1 36 C-1.6875 32.6875 -1.6875 32.6875 -2 29 C-0.625 27.3125 -0.625 27.3125 1 26 C2.43745456 22.52615148 1.7382482 19.60921341 1 16 C-2.04386724 15.91773332 -4.07175348 16.02391783 -7 17 C-3.1369863 3.1369863 -3.1369863 3.1369863 0 0 Z " fill="#1991A7" transform="translate(406,245)"/>
<path d="M0 0 C3.18937038 4.78405557 2.32814631 9.93921602 2.3125 15.5625 C2.32861328 16.72458984 2.34472656 17.88667969 2.36132812 19.08398438 C2.36197266 20.19193359 2.36261719 21.29988281 2.36328125 22.44140625 C2.36626221 23.45920166 2.36924316 24.47699707 2.37231445 25.52563477 C2.24945068 26.34217529 2.12658691 27.15871582 2 28 C-1 30 -1 30 -3.625 29.6875 C-6 29 -6 29 -7 28 C-7.07205511 26.31391034 -7.08386068 24.62499341 -7.0625 22.9375 C-7.05347656 22.01839844 -7.04445313 21.09929687 -7.03515625 20.15234375 C-7.02355469 19.44207031 -7.01195313 18.73179687 -7 18 C-6.34 17.67 -5.68 17.34 -5 17 C-4.34256996 14.06086376 -4.34256996 14.06086376 -3.9375 10.625 C-3.48483732 7.2506055 -3.07716699 4.23150096 -2 1 C-1.34 0.67 -0.68 0.34 0 0 Z " fill="#0895AF" transform="translate(113,244)"/>
<path d="M0 0 C2.875 0.9375 2.875 0.9375 4.25 2.5625 C5.88018276 8.7571945 4.86927961 14.37490525 1.875 19.9375 C-0.3125 21.9375 -0.3125 21.9375 -2.125 22.9375 C-2.125 22.2775 -2.125 21.6175 -2.125 20.9375 C-3.445 20.6075 -4.765 20.2775 -6.125 19.9375 C-5.63 19.07125 -5.135 18.205 -4.625 17.3125 C-2.71886153 13.63924206 -2.71886153 13.63924206 -3.125 7.9375 C-4.445 12.2275 -5.765 16.5175 -7.125 20.9375 C-7.785 19.6175 -8.445 18.2975 -9.125 16.9375 C-9.785 16.2775 -10.445 15.6175 -11.125 14.9375 C-10.135 14.6075 -9.145 14.2775 -8.125 13.9375 C-7.21223369 11.68424597 -6.66718478 9.42040011 -6.06640625 7.06640625 C-5.125 4.9375 -5.125 4.9375 -3.02734375 3.65234375 C-2.39957031 3.41644531 -1.77179688 3.18054688 -1.125 2.9375 C-3.105 2.9375 -5.085 2.9375 -7.125 2.9375 C-4.60800773 0.51731512 -3.56129761 -0.07122595 0 0 Z " fill="#1891A6" transform="translate(330.125,221.0625)"/>
<path d="M0 0 C0 0.66 0 1.32 0 2 C-1.32 2 -2.64 2 -4 2 C-1.31907309 4.68092691 0.39167363 4.38670257 4.125 4.625 C5.76855469 4.73714844 5.76855469 4.73714844 7.4453125 4.8515625 C8.28835937 4.90054688 9.13140625 4.94953125 10 5 C10 5.33 10 5.66 10 6 C9.31292969 6.12117187 8.62585938 6.24234375 7.91796875 6.3671875 C7.01691406 6.53476563 6.11585937 6.70234375 5.1875 6.875 C3.84751953 7.11863281 3.84751953 7.11863281 2.48046875 7.3671875 C-0.22727846 7.91188449 -0.22727846 7.91188449 -3 10 C-3.32612375 12.17528363 -3.32612375 12.17528363 -3.125 14.5625 C-3.05405352 16.04055167 -3.00579155 17.52025793 -3 19 C-4 20 -4 20 -6.375 20.3125 C-9 20 -9 20 -10.8125 18.4375 C-12.45095998 15.07434531 -12.38971822 12.70232314 -12 9 C-9.84662576 3.8558282 -5.75253438 0 0 0 Z " fill="#0F96AE" transform="translate(102,225)"/>
<path d="M0 0 C0.86625 0.66 1.7325 1.32 2.625 2 C2.295 2.66 1.965 3.32 1.625 4 C0.96113281 3.51917969 0.29726563 3.03835937 -0.38671875 2.54296875 C-3.99876172 0.67792695 -7.20845814 0.44576934 -11.1875 0.3125 C-12.22680664 0.26125977 -12.22680664 0.26125977 -13.28710938 0.20898438 C-14.98252849 0.12713656 -16.67873458 0.06187635 -18.375 0 C-17.715 0.33 -17.055 0.66 -16.375 1 C-16.375 1.66 -16.375 2.32 -16.375 3 C-15.67632812 3.06058594 -14.97765625 3.12117187 -14.2578125 3.18359375 C-13.34773438 3.26738281 -12.43765625 3.35117188 -11.5 3.4375 C-10.59507812 3.51871094 -9.69015625 3.59992188 -8.7578125 3.68359375 C-6.375 4 -6.375 4 -4.375 5 C-4.705 5.66 -5.035 6.32 -5.375 7 C-6.365 6.67 -7.355 6.34 -8.375 6 C-13.8045631 5.64970561 -16.87502981 5.62502236 -21.375 9 C-22.035 7.35 -22.695 5.7 -23.375 4 C-23.705 5.65 -24.035 7.3 -24.375 9 C-25.035 9 -25.695 9 -26.375 9 C-27.365 9.495 -27.365 9.495 -28.375 10 C-28.045 13.63 -27.715 17.26 -27.375 21 C-30.64944063 16.63407916 -30.92480989 15.36086887 -30.71484375 10.24609375 C-30.06778872 5.96958065 -28.14179945 3.42498146 -24.8203125 0.74609375 C-17.82589989 -3.56162388 -7.17839961 -4.09358837 0 0 Z " fill="#1890A7" transform="translate(304.375,225)"/>
<path d="M0 0 C0.99 0.33 1.98 0.66 3 1 C3.33 4.3 3.66 7.6 4 11 C5.32 11.33 6.64 11.66 8 12 C8.66 12.33 9.32 12.66 10 13 C9.01 14.485 9.01 14.485 8 16 C7.29835358 17.98799818 6.62627128 19.98698517 6 22 C5.236875 21.773125 4.47375 21.54625 3.6875 21.3125 C2.800625 21.209375 1.91375 21.10625 1 21 C-0.77190909 22.35444301 -0.77190909 22.35444301 -2 24 C-2.33 24 -2.66 24 -3 24 C-3.76681614 15.22421525 -3.76681614 15.22421525 -1.88671875 12.22265625 C-0.5 10.875 -0.5 10.875 2 9 C1.01 8.67 0.02 8.34 -1 8 C-1.04241723 5.66705225 -1.04092937 3.33297433 -1 1 C-0.67 0.67 -0.34 0.34 0 0 Z " fill="#0598B3" transform="translate(240,238)"/>
<path d="M0 0 C0 1.65 0 3.3 0 5 C0.99 5 1.98 5 3 5 C3.125 11.625 3.125 11.625 2 15 C1.34 15 0.68 15 0 15 C0 15.66 0 16.32 0 17 C-1.65 17.66 -3.3 18.32 -5 19 C-6.63377133 17.36622867 -6.31761765 15.37221115 -6.5 13.125 C-6.74279416 10.15077151 -7.05025071 7.84924786 -8 5 C-7.34 4.67 -6.68 4.34 -6 4 C-6 3.01 -6 2.02 -6 1 C-4 0 -4 0 0 0 Z " fill="#0398B2" transform="translate(369,253)"/>
<path d="M0 0 C2.0625 0.4375 2.0625 0.4375 4 1 C4.33 2.32 4.66 3.64 5 5 C9.455 4.505 9.455 4.505 14 4 C14 6.31 14 8.62 14 11 C14.66 11 15.32 11 16 11 C16 12.65 16 14.3 16 16 C13.525 15.505 13.525 15.505 11 15 C10.67 15.66 10.34 16.32 10 17 C10 15.68 10 14.36 10 13 C9.34 13 8.68 13 8 13 C7.67 12.01 7.34 11.02 7 10 C6.34 9.835 5.68 9.67 5 9.5 C4.34 9.335 3.68 9.17 3 9 C2.67 8.01 2.34 7.02 2 6 C0.68 6 -0.64 6 -2 6 C-1.125 1.125 -1.125 1.125 0 0 Z " fill="#0397B3" transform="translate(151,254)"/>
<path d="M0 0 C3.52336395 3.76635457 3.32337522 7.70982814 3.30078125 12.59765625 C2.98365957 15.13051122 2.27224682 16.80524751 1 19 C1.02320313 18.20335937 1.04640625 17.40671875 1.0703125 16.5859375 C1.23848592 8.605026 1.23848592 8.605026 -1 1 C-2.32 1.33 -3.64 1.66 -5 2 C-4.938125 2.680625 -4.87625 3.36125 -4.8125 4.0625 C-5.00887184 7.1389921 -5.90906237 9.24966945 -7.19921875 12.01953125 C-8.62634158 15.54904967 -9.2815232 19.27237333 -10 23 C-10.33 23 -10.66 23 -11 23 C-11.21192221 17.80790596 -10.5912689 13.873261 -9 9 C-9.928125 9.99 -9.928125 9.99 -10.875 11 C-13 13 -13 13 -15 13 C-15.33 14.98 -15.66 16.96 -16 19 C-17.19234985 16.12310936 -17.02291478 15.06011094 -15.890625 12.08984375 C-15.07851562 10.52943359 -15.07851562 10.52943359 -14.25 8.9375 C-13.71890625 7.89464844 -13.1878125 6.85179687 -12.640625 5.77734375 C-9.50438 0.468129 -6.31007661 -2.20852681 0 0 Z " fill="#1D90A3" transform="translate(256,218)"/>
<path d="M0 0 C2.875 1.5 2.875 1.5 5 3 C4.401875 3.2475 3.80375 3.495 3.1875 3.75 C0.71352479 5.16370012 -0.43370255 6.65055383 -2 9 C-1.505 9.886875 -1.01 10.77375 -0.5 11.6875 C0.95024424 14.8901227 1.47702423 16.56542556 1 20 C0.34 20.66 -0.32 21.32 -1 22 C-1.99 21.67 -2.98 21.34 -4 21 C-3.01 20.01 -2.02 19.02 -1 18 C-1.309375 17.46375 -1.61875 16.9275 -1.9375 16.375 C-3.17827439 13.6015043 -3.5909675 10.99957163 -4 8 C-6.0343459 9.41519715 -6.90410393 10.54982123 -7.421875 12.98046875 C-7.66273952 14.98176954 -7.83532741 16.9909944 -8 19 C-8.33 19 -8.66 19 -9 19 C-9.02708567 17.39592672 -9.04643483 15.7917215 -9.0625 14.1875 C-9.07410156 13.29417969 -9.08570313 12.40085937 -9.09765625 11.48046875 C-9 9 -9 9 -8 6 C-6.68 6 -5.36 6 -4 6 C-3.67 5.01 -3.34 4.02 -3 3 C-8.10158596 3.85026433 -11.48886449 5.13775094 -15 9 C-13.73090537 5.08695821 -12.53743024 3.14389712 -9 1 C-5.69407756 -0.10197415 -3.46771262 -0.27741701 0 0 Z " fill="#1B93AC" transform="translate(350,245)"/>
<path d="M0 0 C3.38231081 1.39957689 5.27928642 2.73064421 7 6 C7.6212745 12.41983655 7.10699835 13.7860033 4 20 C-3.425 19.01 -3.425 19.01 -11 18 C-11 17.67 -11 17.34 -11 17 C-8.69 16.34 -6.38 15.68 -4 15 C-3.67 12.69 -3.34 10.38 -3 8 C-2.34 8 -1.68 8 -1 8 C-0.67 9.32 -0.34 10.64 0 12 C1.65 12.33 3.3 12.66 5 13 C4.67 10.36 4.34 7.72 4 5 C1.525 4.01 1.525 4.01 -1 3 C-0.67 2.01 -0.34 1.02 0 0 Z " fill="#0F94AB" transform="translate(300,249)"/>
<path d="M0 0 C1.16619714 4.66478855 0.76990451 7.3035825 0 12 C-0.33 12.33 -0.66 12.66 -1 13 C-0.835 14.155 -0.67 15.31 -0.5 16.5 C-0.335 17.655 -0.17 18.81 0 20 C-0.33 20.33 -0.66 20.66 -1 21 C-1.07271741 23.35313555 -1.08370868 25.70833668 -1.0625 28.0625 C-1.05347656 29.35285156 -1.04445313 30.64320313 -1.03515625 31.97265625 C-1.02355469 32.97167969 -1.01195312 33.97070312 -1 35 C-3.16066331 31.75900504 -3.37886905 30.23720241 -3.6875 26.4375 C-3.81705078 24.98150391 -3.81705078 24.98150391 -3.94921875 23.49609375 C-4 21 -4 21 -3 19 C-4.65 18.67 -6.3 18.34 -8 18 C-9.125 14.25 -9.125 14.25 -8 12 C-6.35 11.67 -4.7 11.34 -3 11 C-2.01 7.37 -1.02 3.74 0 0 Z " fill="#1296AC" transform="translate(317,233)"/>
<path d="M0 0 C0.33 0 0.66 0 1 0 C1.33 2.64 1.66 5.28 2 8 C4.97 8.495 4.97 8.495 8 9 C8.99 6.69 9.98 4.38 11 2 C11.66 2 12.32 2 13 2 C12.27569831 4.48676914 11.5390278 6.96850173 10.78125 9.4453125 C10.21037752 11.3120655 9.66128084 13.18551704 9.125 15.0625 C8 17 8 17 5.375 17.8125 C4.199375 17.9053125 4.199375 17.9053125 3 18 C0.54394629 15.44725126 0.01197061 14.14109357 -0.29296875 10.546875 C-0.25816406 9.29390625 -0.22335938 8.0409375 -0.1875 6.75 C-0.16042969 5.48671875 -0.13335937 4.2234375 -0.10546875 2.921875 C-0.07066406 1.95765625 -0.03585938 0.9934375 0 0 Z " fill="#1492A9" transform="translate(132,256)"/>
<path d="M0 0 C2.7084017 -0.02714434 5.41652721 -0.04690846 8.125 -0.0625 C8.88554687 -0.07087891 9.64609375 -0.07925781 10.4296875 -0.08789062 C14.7389644 -0.10646509 18.75516474 0.13882735 23 1 C22.67 1.66 22.34 2.32 22 3 C20.68225804 3.39044206 19.34332728 3.70955086 18 4 C17.0925 4.350625 16.185 4.70125 15.25 5.0625 C11.29275783 6.20401216 8.10507023 6.14155415 4 6 C3.34 4.35 2.68 2.7 2 1 C2 1.99 2 2.98 2 4 C1.01 3.67 0.02 3.34 -1 3 C-0.67 2.01 -0.34 1.02 0 0 Z " fill="#0396B1" transform="translate(280,267)"/>
<path d="M0 0 C0.66 0 1.32 0 2 0 C2 1.32 2 2.64 2 4 C6.12973628 3.43260132 6.12973628 3.43260132 10 2 C9.67 3.65 9.34 5.3 9 7 C8.071875 7.12375 8.071875 7.12375 7.125 7.25 C4.81562433 7.81258459 4.81562433 7.81258459 3.75 10.0625 C3.5025 10.701875 3.255 11.34125 3 12 C0.69 11.67 -1.62 11.34 -4 11 C-3.7215625 10.1028125 -3.7215625 10.1028125 -3.4375 9.1875 C-2.77906313 6.83591238 -2.77906313 6.83591238 -4 4 C-3.67 3.34 -3.34 2.68 -3 2 C-2.01 2 -1.02 2 0 2 C0 1.34 0 0.68 0 0 Z " fill="#0396B2" transform="translate(217,256)"/>
<path d="M0 0 C0 3 0 3 -2 6 C-0.68 6 0.64 6 2 6 C2 5.34 2 4.68 2 4 C2.66 4.33 3.32 4.66 4 5 C2.35 8.3 0.7 11.6 -1 15 C0.32 14.34 1.64 13.68 3 13 C2.34 14.32 1.68 15.64 1 17 C0.01 17 -0.98 17 -2 17 C-2.66 14.69 -3.32 12.38 -4 10 C-4.33 10.33 -4.66 10.66 -5 11 C-4.91036938 12.69141656 -4.75422324 14.37959602 -4.5625 16.0625 C-4.46066406 16.98160156 -4.35882813 17.90070313 -4.25390625 18.84765625 C-4.17011719 19.55792969 -4.08632813 20.26820313 -4 21 C-4.66 21 -5.32 21 -6 21 C-8.25620852 17.81476444 -8.25790461 14.96828949 -7.6875 11.16796875 C-6.30648905 6.81307626 -3.20256497 3.20256497 0 0 Z " fill="#2091A6" transform="translate(392,278)"/>
<path d="M0 0 C1.32 0 2.64 0 4 0 C6.41685712 4.22949995 7.34833144 7.12335991 7 12 C5.02 12.99 5.02 12.99 3 14 C2.34 11.03 1.68 8.06 1 5 C0.34 5 -0.32 5 -1 5 C-0.67 3.35 -0.34 1.7 0 0 Z " fill="#0396AF" transform="translate(251,219)"/>
<path d="M0 0 C0 0.66 0 1.32 0 2 C-1.32 2 -2.64 2 -4 2 C-1.31907309 4.68092691 0.39167363 4.38670257 4.125 4.625 C5.76855469 4.73714844 5.76855469 4.73714844 7.4453125 4.8515625 C8.28835937 4.90054688 9.13140625 4.94953125 10 5 C10 5.33 10 5.66 10 6 C8.98679687 6.18175781 8.98679687 6.18175781 7.953125 6.3671875 C7.06109375 6.53476563 6.1690625 6.70234375 5.25 6.875 C4.36828125 7.03742188 3.4865625 7.19984375 2.578125 7.3671875 C0.13052256 7.96796264 -1.80599857 8.77997117 -4 10 C-4 9.01 -4 8.02 -4 7 C-6.41645782 6.83312552 -6.41645782 6.83312552 -9 7 C-9.66 7.66 -10.32 8.32 -11 9 C-10.66032174 5.82966958 -10.00130809 5.00117393 -7.5625 2.8125 C-3.5862069 0 -3.5862069 0 0 0 Z " fill="#1497AA" transform="translate(102,225)"/>
<path d="M0 0 C0.66 0.33 1.32 0.66 2 1 C2.3125 3.6875 2.3125 3.6875 2 7 C-0.5 9.875 -0.5 9.875 -3 12 C-4 9 -4 9 -4 7 C-4.99 7.495 -4.99 7.495 -6 8 C-8.3329866 8.04022391 -10.66706666 8.04320247 -13 8 C-12.67 7.34 -12.34 6.68 -12 6 C-11.319375 6.12375 -10.63875 6.2475 -9.9375 6.375 C-5.51142186 5.80996875 -3.1251547 3.0260864 0 0 Z " fill="#1690AA" transform="translate(258,259)"/>
<path d="M0 0 C2 3.75 2 3.75 2 6 C1.34 6 0.68 6 0 6 C0 6.66 0 7.32 0 8 C-0.99 8 -1.98 8 -3 8 C-3 8.66 -3 9.32 -3 10 C-1.68 10 -0.36 10 1 10 C0.4140625 16.15234375 0.4140625 16.15234375 0 18 C-0.66 18.33 -1.32 18.66 -2 19 C-2.66 18.67 -3.32 18.34 -4 18 C-4.8340808 14.3300445 -5.30467199 10.7576212 -5 7 C-4.34 6.01 -3.68 5.02 -3 4 C-2.67 4.33 -2.34 4.66 -2 5 C-1.34 3.35 -0.68 1.7 0 0 Z " fill="#0299B2" transform="translate(281,228)"/>
<path d="M0 0 C-0.66 2.31 -1.32 4.62 -2 7 C-3.65 7 -5.3 7 -7 7 C-7.12375 7.61875 -7.2475 8.2375 -7.375 8.875 C-8 11 -8 11 -10 13 C-11.21103118 7.67146283 -11.21103118 7.67146283 -10.3125 4.8125 C-7.39131504 0.77848268 -4.97104249 -0.41425354 0 0 Z " fill="#0598AC" transform="translate(383,247)"/>
<path d="M0 0 C2.64 0.33 5.28 0.66 8 1 C8.33 1.99 8.66 2.98 9 4 C7 7 7 7 4 8 C2.43881572 8.06740865 0.8749748 8.08514456 -0.6875 8.0625 C-1.89986328 8.04896484 -1.89986328 8.04896484 -3.13671875 8.03515625 C-4.05904297 8.01775391 -4.05904297 8.01775391 -5 8 C-2.63707344 5.47411298 -1.33537489 4.11179163 2 3 C1.34 2.67 0.68 2.34 0 2 C0 1.34 0 0.68 0 0 Z " fill="#1498AC" transform="translate(327,244)"/>
<path d="M0 0 C0.66 0 1.32 0 2 0 C2.48590022 7.28850325 2.48590022 7.28850325 0.25 10.5625 C-2 12 -2 12 -4.25 11.75 C-5.11625 11.37875 -5.11625 11.37875 -6 11 C-6.74926071 7.33694766 -7.2380014 4.57644848 -6 1 C-5.01 1.33 -4.02 1.66 -3 2 C-3.33 3.65 -3.66 5.3 -4 7 C-2.68 7 -1.36 7 0 7 C0 4.69 0 2.38 0 0 Z " fill="#1A8FA8" transform="translate(307,231)"/>
<path d="M0 0 C0.99 0.33 1.98 0.66 3 1 C4.1875 4.5625 4.1875 4.5625 5 8 C6.093125 8.04125 7.18625 8.0825 8.3125 8.125 C9.529375 8.41375 10.74625 8.7025 12 9 C13.0650015 10.96615661 14.06833174 12.96726926 15 15 C17.55519921 15.81171228 17.55519921 15.81171228 20 16 C20.33 16.66 20.66 17.32 21 18 C18.75 18.75 18.75 18.75 16 19 C13.18181152 16.96464165 12.16692005 15.61204018 11.25 12.25 C11.12625 11.13625 11.12625 11.13625 11 10 C9.906875 10.061875 8.81375 10.12375 7.6875 10.1875 C4 10 4 10 2.125 8.9375 C0.46514955 6.07886867 0.30684971 3.25260697 0 0 Z " fill="#2893A5" transform="translate(376,255)"/>
<path d="M0 0 C0 0.66 0 1.32 0 2 C0.66 2.33 1.32 2.66 2 3 C1.34 3 0.68 3 0 3 C0 3.66 0 4.32 0 5 C-1.65 4.67 -3.3 4.34 -5 4 C-5.33 4.99 -5.66 5.98 -6 7 C-6.99 7 -7.98 7 -9 7 C-9 6.34 -9 5.68 -9 5 C-10.32 5 -11.64 5 -13 5 C-12.28125 3.046875 -12.28125 3.046875 -11 1 C-8.90625 0.390625 -8.90625 0.390625 -6.5 0.25 C-5.7059375 0.19328125 -4.911875 0.1365625 -4.09375 0.078125 C-2.72986733 0.02723386 -1.3648318 0 0 0 Z " fill="#0396B3" transform="translate(254,266)"/>
<path d="M0 0 C0.99 0 1.98 0 3 0 C3 3.63 3 7.26 3 11 C1.35 11 -0.3 11 -2 11 C-3.14947895 7.44706507 -3.0868937 6.20023331 -1.5625 2.6875 C-1.046875 1.800625 -0.53125 0.91375 0 0 Z " fill="#0196B2" transform="translate(406,247)"/>
<path d="M0 0 C0.7425 0.185625 1.485 0.37125 2.25 0.5625 C2.8275 0.706875 3.405 0.85125 4 1 C4.33 3.31 4.66 5.62 5 8 C4.34 8 3.68 8 3 8 C2.34 7.01 1.68 6.02 1 5 C-0.32 5.33 -1.64 5.66 -3 6 C-3 5.01 -3 4.02 -3 3 C-4.32 2.67 -5.64 2.34 -7 2 C-7 1.34 -7 0.68 -7 0 C-3.77167035 -1.07610988 -3.0998653 -0.93935312 0 0 Z " fill="#0599B5" transform="translate(177,248)"/>
<path d="M0 0 C1.2065625 0.0309375 1.2065625 0.0309375 2.4375 0.0625 C4.38781692 4.13973734 4.65331971 7.37942422 4.5625 11.875 C4.54445312 13.03644531 4.52640625 14.19789063 4.5078125 15.39453125 C4.48460937 16.27496094 4.46140625 17.15539062 4.4375 18.0625 C3.7775 17.7325 3.1175 17.4025 2.4375 17.0625 C2.4375 12.1125 2.4375 7.1625 2.4375 2.0625 C-2.27954177 4.61785135 -2.27954177 4.61785135 -4.5625 7.0625 C-3.5234375 0.0859375 -3.5234375 0.0859375 0 0 Z " fill="#218DA0" transform="translate(190.5625,244.9375)"/>
<path d="M0 0 C0.33 0 0.66 0 1 0 C1.33 4.95 1.66 9.9 2 15 C0.68 15.33 -0.64 15.66 -2 16 C-2 16.99 -2 17.98 -2 19 C-0.33333333 19.33333333 1.33333333 19.66666667 3 20 C4.66666667 20.33333333 6.33333333 20.66666667 8 21 C8 21.33 8 21.66 8 22 C6.56163249 21.88541307 5.12429034 21.75790884 3.6875 21.625 C2.88699219 21.55539062 2.08648437 21.48578125 1.26171875 21.4140625 C-1 21 -1 21 -4 19 C-4 17.68 -4 16.36 -4 15 C-2.68 14.67 -1.36 14.34 0 14 C0 13.34 0 12.68 0 12 C-0.66 12 -1.32 12 -2 12 C-2 11.34 -2 10.68 -2 10 C-1.34 10 -0.68 10 0 10 C0 6.7 0 3.4 0 0 Z " fill="#1894A7" transform="translate(321,252)"/>
<path d="M0 0 C1.09120352 4.3648141 1.33079771 7.68821541 0 12 C-2.5 14.375 -2.5 14.375 -5 16 C-5.33 16.66 -5.66 17.32 -6 18 C-5.01 18.33 -4.02 18.66 -3 19 C-4.65 18.67 -6.3 18.34 -8 18 C-9.125 14.25 -9.125 14.25 -8 12 C-6.35 11.67 -4.7 11.34 -3 11 C-2.01 7.37 -1.02 3.74 0 0 Z " fill="#1E92A6" transform="translate(317,233)"/>
<path d="M0 0 C-1.98 0.99 -1.98 0.99 -4 2 C-3.67 2.66 -3.34 3.32 -3 4 C-3.639375 4.12375 -4.27875 4.2475 -4.9375 4.375 C-5.618125 4.58125 -6.29875 4.7875 -7 5 C-7.33 5.66 -7.66 6.32 -8 7 C-11.0625 7.625 -11.0625 7.625 -14 8 C-13.63515574 5.44609016 -12.94055033 3.9108255 -11.5 1.75 C-7.80600629 -0.8357956 -4.37436583 -0.33648968 0 0 Z " fill="#0297B2" transform="translate(229,247)"/>
<path d="M0 0 C-0.52537724 5.0302076 -1.10594786 10.01885239 -2 15 C-2.33 15 -2.66 15 -3 15 C-3.06058594 14.30132812 -3.12117188 13.60265625 -3.18359375 12.8828125 C-3.26738281 11.97273438 -3.35117187 11.06265625 -3.4375 10.125 C-3.51871094 9.22007812 -3.59992188 8.31515625 -3.68359375 7.3828125 C-3.86989285 4.98889139 -3.86989285 4.98889139 -5 3 C-5.99 3 -6.98 3 -8 3 C-7.67 2.01 -7.34 1.02 -7 0 C-4.3333581 -1.33332095 -2.83319697 -0.67102033 0 0 Z " fill="#1B90A5" transform="translate(398,246)"/>
<path d="M0 0 C0.66 0 1.32 0 2 0 C2 0.66 2 1.32 2 2 C2.66 2.33 3.32 2.66 4 3 C4.72159424 4.64363134 5.39351421 6.31050386 6 8 C2.14354879 8.22036864 -0.49223216 7.60355101 -4 6 C-4 5.01 -4 4.02 -4 3 C-2.68 2.67 -1.36 2.34 0 2 C0 1.34 0 0.68 0 0 Z " fill="#0498B3" transform="translate(323,265)"/>
<path d="M0 0 C1.32 0.33 2.64 0.66 4 1 C3.01 1.66 2.02 2.32 1 3 C2.65 3.33 4.3 3.66 6 4 C6 4.33 6 4.66 6 5 C4.865625 5.12375 3.73125 5.2475 2.5625 5.375 C0.7990625 5.684375 0.7990625 5.684375 -1 6 C-1.33 6.66 -1.66 7.32 -2 8 C-1.34 8.66 -0.68 9.32 0 10 C-4.31392226 9.5206753 -6.16569547 8.2542015 -9 5 C-6.53721199 3.768606 -4.7204945 3.92840804 -2 4 C-1.34 2.68 -0.68 1.36 0 0 Z " fill="#1B94A7" transform="translate(222,263)"/>
<path d="M0 0 C0 4.07546013 -1.55304448 5.80536362 -4 9 C-6.5946113 10.92503419 -7.5238972 11.06492311 -10.75 10.625 C-11.86375 10.315625 -11.86375 10.315625 -13 10 C-12.34 9.67 -11.68 9.34 -11 9 C-10.67 8.01 -10.34 7.02 -10 6 C-9.67 6.66 -9.34 7.32 -9 8 C-8.01 7.67 -7.02 7.34 -6 7 C-5.690625 6.195625 -5.38125 5.39125 -5.0625 4.5625 C-4 2 -4 2 -1.875 0.6875 C-1.25625 0.460625 -0.6375 0.23375 0 0 Z " fill="#1592A5" transform="translate(203,263)"/>
<path d="M0 0 C0.99 0 1.98 0 3 0 C2.67 2.31 2.34 4.62 2 7 C0.35 7.33 -1.3 7.66 -3 8 C-3.33 9.32 -3.66 10.64 -4 12 C-5.32 11.67 -6.64 11.34 -8 11 C-7.23883449 9.84772177 -6.46567307 8.7033614 -5.6875 7.5625 C-5.04361328 6.60537109 -5.04361328 6.60537109 -4.38671875 5.62890625 C-3 4 -3 4 0 3 C0 2.01 0 1.02 0 0 Z " fill="#0395B7" transform="translate(404,261)"/>
<path d="M0 0 C-0.78375 0.309375 -1.5675 0.61875 -2.375 0.9375 C-6.19261016 3.93705084 -6.34734749 7.35350378 -7 12 C-8.32 12 -9.64 12 -11 12 C-10.33333333 9.33333333 -9.66666667 6.66666667 -9 4 C-8.34 4 -7.68 4 -7 4 C-7 2.68 -7 1.36 -7 0 C-3.86650268 -1.04449911 -3.01031744 -0.93423645 0 0 Z " fill="#0297B3" transform="translate(330,224)"/>
<path d="M0 0 C0.99 0 1.98 0 3 0 C3 1.32 3 2.64 3 4 C2.34 4 1.68 4 1 4 C0.87625 4.94875 0.7525 5.8975 0.625 6.875 C0 10 0 10 -2 12 C-2.66 11.67 -3.32 11.34 -4 11 C-3.39301257 6.87248551 -1.96189209 3.6678852 0 0 Z " fill="#0494B6" transform="translate(142,254)"/>
<path d="M0 0 C-0.66 0.66 -1.32 1.32 -2 2 C0.64 2.33 3.28 2.66 6 3 C5 5 5 5 2.625 6.125 C0 7 0 7 -3 7 C-4.98 3.535 -4.98 3.535 -7 0 C-2.25 -1.125 -2.25 -1.125 0 0 Z " fill="#1792AA" transform="translate(332,266)"/>
<path d="M0 0 C1.32 0 2.64 0 4 0 C4.33 0.66 4.66 1.32 5 2 C7.02463255 2.65213292 7.02463255 2.65213292 9 3 C9 3.66 9 4.32 9 5 C9.99 5 10.98 5 12 5 C12.33 3.68 12.66 2.36 13 1 C13.33 1.66 13.66 2.32 14 3 C16.02463255 3.65213292 16.02463255 3.65213292 18 4 C13.66957545 6.23082477 10.71272535 6.0472723 6 5 C5.01 4.34 4.02 3.68 3 3 C3 2.34 3 1.68 3 1 C1.35 1.66 -0.3 2.32 -2 3 C-1.34 2.01 -0.68 1.02 0 0 Z " fill="#1E90A5" transform="translate(236,268)"/>
<path d="M0 0 C3.38231081 1.39957689 5.27928642 2.73064421 7 6 C7.56330335 10.28977165 7.46442456 13.30336316 5 17 C4.67 13.04 4.34 9.08 4 5 C1.525 4.01 1.525 4.01 -1 3 C-0.67 2.01 -0.34 1.02 0 0 Z " fill="#218EA2" transform="translate(300,249)"/>
<path d="M0 0 C0.66 0 1.32 0 2 0 C2.33 2.64 2.66 5.28 3 8 C5.47266765 7.65555119 5.47266765 7.65555119 8 7 C8.33 6.34 8.66 5.68 9 5 C8.67 6.65 8.34 8.3 8 10 C6.35 10.33 4.7 10.66 3 11 C0.39665076 8.28817788 0.00543309 7.10866187 -0.1875 3.25 C-0.125625 2.1775 -0.06375 1.105 0 0 Z " fill="#2590A2" transform="translate(361,263)"/>
<path d="M0 0 C0.99 0 1.98 0 3 0 C2.50873071 6.36559573 2.00344253 12.69264693 1 19 C0.67 19 0.34 19 0 19 C0 12.73 0 6.46 0 0 Z " fill="#1E90A5" transform="translate(115,247)"/>
<path d="M0 0 C0.66 0.66 1.32 1.32 2 2 C1.40832031 2.03738281 0.81664062 2.07476562 0.20703125 2.11328125 C-6.29576622 2.65429703 -10.51286607 4.04053618 -15 9 C-13.73090537 5.08695821 -12.53743024 3.14389712 -9 1 C-5.75778445 -0.08073852 -3.39597063 -0.21676408 0 0 Z " fill="#238FA4" transform="translate(350,245)"/>
<path d="M0 0 C1.65 0 3.3 0 5 0 C5 1.65 5 3.3 5 5 C3.35 5.66 1.7 6.32 0 7 C-0.66 6.34 -1.32 5.68 -2 5 C-1.34 3.35 -0.68 1.7 0 0 Z " fill="#1098AC" transform="translate(415,260)"/>
<path d="M0 0 C0.33 0 0.66 0 1 0 C1.02708567 1.60407328 1.04643483 3.2082785 1.0625 4.8125 C1.07410156 5.70582031 1.08570313 6.59914063 1.09765625 7.51953125 C1 10 1 10 0 13 C0.38932856 15.14255793 0.38932856 15.14255793 1 17 C0.01 17.33 -0.98 17.66 -2 18 C-2 17.01 -2 16.02 -2 15 C-2.99 15 -3.98 15 -5 15 C-4 13 -4 13 -2.5 11.4375 C-0.28404576 7.83657435 -0.25762019 4.15745693 0 0 Z " fill="#1997AF" transform="translate(199,250)"/>
<path d="M0 0 C0.99 0.66 1.98 1.32 3 2 C2.67 2.99 2.34 3.98 2 5 C2 5.99 2 6.98 2 8 C1.67 8.99 1.34 9.98 1 11 C0.34 11 -0.32 11 -1 11 C-2.60080151 6.99799622 -1.29279692 3.95443764 0 0 Z " fill="#0396B1" transform="translate(330,230)"/>
<path d="M0 0 C0 0.66 0 1.32 0 2 C-1.32 2 -2.64 2 -4 2 C-3.67 2.99 -3.34 3.98 -3 5 C-3.94875 5.28875 -4.8975 5.5775 -5.875 5.875 C-9.05211578 6.76825109 -9.05211578 6.76825109 -11 9 C-10.66032174 5.82966958 -10.00130809 5.00117393 -7.5625 2.8125 C-3.5862069 0 -3.5862069 0 0 0 Z " fill="#1C90A4" transform="translate(102,225)"/>
<path d="M0 0 C0.33 0.99 0.66 1.98 1 3 C1.66 3.33 2.32 3.66 3 4 C3.625 6.5625 3.625 6.5625 4 9 C2.68 9.33 1.36 9.66 0 10 C-0.144375 9.2575 -0.28875 8.515 -0.4375 7.75 C-0.90187492 5.47972261 -1.41863569 3.24240521 -2 1 C-1.34 0.67 -0.68 0.34 0 0 Z " fill="#0198B6" transform="translate(273,256)"/>
<path d="M0 0 C0 1.98 0 3.96 0 6 C-0.99 6.495 -0.99 6.495 -2 7 C-2 5.35 -2 3.7 -2 2 C-3.32 2 -4.64 2 -6 2 C-6.66 3.32 -7.32 4.64 -8 6 C-7.625 3.5625 -7.625 3.5625 -7 1 C-4.53721199 -0.231394 -2.7204945 -0.07159196 0 0 Z " fill="#2A8FA0" transform="translate(371,245)"/>
<path d="M0 0 C0.99 0.33 1.98 0.66 3 1 C3 2.98 3 4.96 3 7 C1.68 7.33 0.36 7.66 -1 8 C-1.04241723 5.66705225 -1.04092937 3.33297433 -1 1 C-0.67 0.67 -0.34 0.34 0 0 Z " fill="#0097B1" transform="translate(240,238)"/>
<path d="M0 0 C0.95465783 2.16967689 1.14401212 3.56328793 0.3984375 5.82421875 C-0.35870385 7.5684743 -1.17609198 9.28627131 -2 11 C-2.33 11 -2.66 11 -3 11 C-3.33 8.03 -3.66 5.06 -4 2 C-3.01 2.33 -2.02 2.66 -1 3 C-0.67 2.01 -0.34 1.02 0 0 Z " fill="#1A91A4" transform="translate(256,237)"/>
<path d="M0 0 C0.99 1.485 0.99 1.485 2 3 C3.66014616 3.36442233 5.32706064 3.69972883 7 4 C7.33 4.66 7.66 5.32 8 6 C5.6875 6.625 5.6875 6.625 3 7 C2.01 6.34 1.02 5.68 0 5 C-0.1875 2.375 -0.1875 2.375 0 0 Z " fill="#1A91A7" transform="translate(389,267)"/>
<path d="M0 0 C0.66 0 1.32 0 2 0 C2 1.32 2 2.64 2 4 C2.78375 3.525625 3.5675 3.05125 4.375 2.5625 C5.88948678 1.66101977 7.4235897 0.78820515 9 0 C8.375 2.4375 8.375 2.4375 7 5 C3.9375 5.875 3.9375 5.875 1 6 C0 5 0 5 -0.0625 2.4375 C-0.041875 1.633125 -0.02125 0.82875 0 0 Z " fill="#1798A4" transform="translate(178,262)"/>
<path d="M0 0 C0 1.98 0 3.96 0 6 C-1.32 6 -2.64 6 -4 6 C-4.33 5.01 -4.66 4.02 -5 3 C-2.25 0 -2.25 0 0 0 Z " fill="#0298B3" transform="translate(286,243)"/>
<path d="M0 0 C0.33 0.66 0.66 1.32 1 2 C1.66 2.33 2.32 2.66 3 3 C3 4.65 3 6.3 3 8 C1.68 7.67 0.36 7.34 -1 7 C-0.67 4.69 -0.34 2.38 0 0 Z " fill="#0694B3" transform="translate(387,286)"/>
<path d="M0 0 C-0.61875 0.04125 -1.2375 0.0825 -1.875 0.125 C-2.57625 0.41375 -3.2775 0.7025 -4 1 C-5.3045656 3.99615946 -5.3045656 3.99615946 -6 7 C-8 4 -8 4 -8 1 C-5.07175348 0.02391783 -3.04386724 -0.08226668 0 0 Z " fill="#1C94A8" transform="translate(361,262)"/>
<path d="M0 0 C0.66 0 1.32 0 2 0 C1.67 0.99 1.34 1.98 1 3 C0.67 2.01 0.34 1.02 0 0 Z M-3 3 C-0.525 3.495 -0.525 3.495 2 4 C2 4.66 2 5.32 2 6 C3.32 6.66 4.64 7.32 6 8 C1.68607774 7.5206753 -0.16569547 6.2542015 -3 3 Z " fill="#1C93A4" transform="translate(280,243)"/>
<path d="M0 0 C0.66 0.33 1.32 0.66 2 1 C2 1.66 2 2.32 2 3 C1.01 3 0.02 3 -1 3 C-1 3.99 -1 4.98 -1 6 C-2.65 6 -4.3 6 -6 6 C-4 4 -2 2 0 0 Z " fill="#1892A5" transform="translate(399,272)"/>
<path d="M0 0 C1.09658936 3.28976808 0.79953138 4.71303767 0 8 C-0.99 8 -1.98 8 -3 8 C-3.66 7.34 -4.32 6.68 -5 6 C-3.35 4.02 -1.7 2.04 0 0 Z " fill="#16A5B8" transform="translate(401,265)"/>
<path d="M0 0 C2.475 0.99 2.475 0.99 5 2 C4.67 3.65 4.34 5.3 4 7 C2.35 6.01 0.7 5.02 -1 4 C-0.67 2.68 -0.34 1.36 0 0 Z " fill="#0D91A8" transform="translate(241,258)"/>
<path d="M0 0 C0.66 0.33 1.32 0.66 2 1 C0.8141763 4.37503669 -0.27573689 6.64722731 -3 9 C-2.25 2.25 -2.25 2.25 0 0 Z " fill="#1F8FA3" transform="translate(249,251)"/>
<path d="M0 0 C0.66 0 1.32 0 2 0 C2.66 2.31 3.32 4.62 4 7 C3.01 6.67 2.02 6.34 1 6 C1 5.34 1 4.68 1 4 C-0.32 4 -1.64 4 -3 4 C-3 3.34 -3 2.68 -3 2 C-2.01 2 -1.02 2 0 2 C0 1.34 0 0.68 0 0 Z " fill="#1A90AA" transform="translate(281,234)"/>
<path d="M0 0 C2.97 0.33 5.94 0.66 9 1 C8.67 1.66 8.34 2.32 8 3 C5.67843403 3.40729228 3.3431213 3.74438677 1 4 C0.67 2.68 0.34 1.36 0 0 Z " fill="#069DBB" transform="translate(294,267)"/>
<path d="M0 0 C0 0.99 0 1.98 0 3 C-0.66 3 -1.32 3 -2 3 C-2.33 3.66 -2.66 4.32 -3 5 C-4.32 4.01 -5.64 3.02 -7 2 C-2.25 0 -2.25 0 0 0 Z " fill="#0B92AC" transform="translate(371,265)"/>
<path d="M0 0 C0.66 0.33 1.32 0.66 2 1 C2 2.32 2 3.64 2 5 C0.02 5 -1.96 5 -4 5 C-4 4.34 -4 3.68 -4 3 C-2.68 3 -1.36 3 0 3 C0 2.01 0 1.02 0 0 Z " fill="#0F93A9" transform="translate(282,268)"/>
<path d="M0 0 C4.455 0.99 4.455 0.99 9 2 C9 2.33 9 2.66 9 3 C1.25 4.125 1.25 4.125 -1 3 C-0.67 2.01 -0.34 1.02 0 0 Z " fill="#1591AC" transform="translate(277,264)"/>
</svg>